<svg width="64" height="64" viewBox="0 0 64 64" fill="none" xmlns="http://www.w3.org/2000/svg">
<path d="M46.1427 44.9024C45.0819 44.5482 44.1226 43.9427 43.3466 43.1375C42.5705 42.3324 42.0006 41.3515 41.6857 40.2785L40.6254 37.0584C40.3402 36.3596 39.8858 35.7427 39.3032 35.2629C38.7206 34.7831 38.0279 34.4555 37.2874 34.3096C36.5795 34.2251 35.9674 34.2604 35.275 34.1523C36.247 40.2514 36.5448 42.5645 30.641 47.0131C29.3268 47.9931 27.883 48.7861 26.3509 49.3694C17.4712 53.0648 22.3122 60.612 31.3579 59.962C35.8533 60.0893 40.3089 59.0868 44.3167 57.0464C44.1271 56.4028 43.9827 55.7468 43.8848 55.083C43.3924 51.5285 44.1937 47.9154 46.1427 44.9024Z" fill="white"/>
<path d="M46.1232 56.1804C46.9622 55.7792 47.8244 55.4284 48.7052 55.13C55.6409 52.6966 53.9754 46.9193 52.8089 41.2188C47.3336 44.3506 44.5047 50.6604 46.1232 56.1804Z" fill="white"/>
<path d="M54.6151 19.5227C49.8068 23.3962 38.5638 24.5204 32.9678 21.6533L33.5961 25.1971C35.845 25.4475 39.3408 25.5819 41.6561 25.7371C42.8359 25.8539 43.9592 26.2995 44.8982 27.0232C45.8372 27.747 46.5541 28.7198 46.9673 29.831C47.4721 31.1893 48.1103 34.0503 49.1663 35.0733C50.14 36.1236 51.4862 36.751 52.9167 36.8209L54.9292 19.2969L54.6248 19.5129L54.6151 19.5227Z" fill="white"/>
<path d="M31.4956 13.1828C31.6254 14.4488 32.556 19.3384 32.556 19.3384L34.2348 20.0649C37.1964 21.4756 40.2573 21.3965 44.003 21.1155C47.6766 20.6427 50.6787 20.0301 53.251 18.1212C53.2577 18.0463 55.1617 16.7194 55.234 16.6288C55.3504 15.2474 55.8288 12.0619 55.882 10.6599C54.8571 4.13935 31.2777 6.59382 31.4956 13.1828ZM33.4396 13.026C34.4944 9.21876 51.1077 6.88935 53.9187 10.8366C52.8277 14.8483 35.8406 16.8926 33.4396 13.026Z" fill="white"/>
<path d="M28.8933 25.1074C28.5627 24.9784 28.2158 24.8958 27.8625 24.8619C26.4481 24.7601 21.7007 24.5325 20.4209 24.3906C20.4209 24.3906 21.2652 29.0343 21.3143 29.2895C21.4642 29.3043 23.5715 29.4719 23.6214 29.4761C24.7996 29.5934 25.9215 30.0381 26.8601 30.7598C27.7987 31.4816 28.5166 32.4516 28.9326 33.5602L30.0027 36.8196C30.2271 37.6893 30.6973 38.476 31.3572 39.0854C32.0171 39.6947 32.8386 40.1011 33.7234 40.2557C34.0674 37.6776 33.3353 33.8168 32.4963 30.8604L31.436 27.6501C31.2161 27.0705 30.8758 26.5442 30.4375 26.1059C29.9992 25.6676 29.4729 25.3272 28.8933 25.1074Z" fill="white"/>
<path d="M42.4706 36.4078L43.5506 39.6671C43.7791 40.57 44.2739 41.3833 44.9707 42.0014C45.6675 42.6194 46.5341 43.0136 47.4578 43.1327C49.0919 41.5279 50.8661 40.0724 52.7593 38.7835L51.5616 38.5577C50.3029 38.3223 49.1337 37.744 48.1827 36.8865C47.2317 36.0291 46.5358 34.9258 46.1718 33.6981L45.1116 30.478C44.8299 29.7305 44.3471 29.0754 43.7164 28.5851C43.0858 28.0949 42.3319 27.7884 41.5381 27.6998C39.3232 27.5632 36.1457 27.4237 33.959 27.2188C33.959 27.2187 34.823 31.9802 34.8524 32.1274C36.5935 32.3975 36.9258 32.047 39.0052 32.7948C39.801 33.1251 40.5197 33.6167 41.1161 34.2385C41.7125 34.8603 42.1737 35.5989 42.4706 36.4078Z" fill="white"/>
<path d="M18.9687 16.2736C19.2721 16.4692 20.1192 16.8055 20.2843 17.1374C20.6142 17.1208 20.8733 17.3438 21.1777 17.4614C23.366 18.4556 30.3962 18.4038 30.3962 18.4038L29.6305 14.1038C29.4579 13.4504 29.4992 12.7588 29.7483 12.1305C26.8243 12.339 21.0079 12.3294 19.9013 10.177C20.6039 6.87192 32.8732 5.18088 36.8659 6.29916C38.0507 5.93508 39.2574 5.64648 40.4787 5.43509C38.1029 4.10002 33.793 3.73671 29.6206 4.17855C24.2557 4.8254 17.8359 6.65499 17.9477 10.4224C17.9461 10.4782 17.9494 10.534 17.9576 10.5892L18.9687 16.2736Z" fill="white"/>
<path d="M25.6245 47.5406C26.9913 47.0239 28.2798 46.3202 29.4533 45.4496C30.7589 44.4878 31.9454 43.3738 32.9875 42.1313C31.8384 41.8435 30.7853 41.2584 29.934 40.4346C29.0827 39.6109 28.4632 38.5776 28.1377 37.4386L27.0774 34.2184C26.8144 33.5092 26.3692 32.8818 25.7867 32.3993C25.2042 31.9167 24.5049 31.5961 23.7591 31.4696C23.1634 31.3736 22.3116 31.397 21.727 31.3125C22.1532 33.102 22.3087 34.9453 22.1883 36.7809C22.2056 37.6122 22.0525 38.4382 21.7385 39.2081C21.4244 39.978 20.9561 40.6755 20.3623 41.2576C19.3472 42.3003 18.2579 43.2683 17.103 44.1537C15.7867 45.1385 14.3394 45.9348 12.803 46.5197C9.48465 47.8451 7.79611 49.9656 8.1691 52.3512C8.19858 52.5378 8.96439 56.7494 15.974 57.0734C17.4136 57.1403 18.8559 57.1239 20.2936 57.0243C19.9764 56.4249 19.7859 55.7666 19.734 55.0903C19.4592 51.9192 21.6386 49.1311 25.6245 47.5406Z" fill="white"/>
<path d="M21.5704 19.6805C20.7023 19.3409 19.7087 19.2336 19.3516 18.3945L20.0684 22.3804C21.4229 22.5707 26.5377 22.7981 27.991 22.9007C29.2624 23.0397 30.4662 23.5444 31.4565 24.3536C31.3989 24.027 30.7477 20.3953 30.7203 20.2009C27.6647 20.603 24.5607 20.4264 21.5704 19.6805Z" fill="white"/>
</svg>
