<svg width="64" height="64" viewBox="0 0 64 64" fill="none" xmlns="http://www.w3.org/2000/svg">
<path d="M24.6844 8.75655C26.1077 9.49873 27.6442 9.99957 29.2315 10.2387C29.4945 10.2744 29.7475 10.3635 29.975 10.5004C30.2024 10.6374 30.3996 10.8192 30.5543 11.035C30.709 11.2507 30.8181 11.4957 30.8749 11.7551C30.9317 12.0144 30.9349 12.2826 30.8845 12.5433L30.3594 15.1979H33.6461L33.1211 12.5433C33.0706 12.2826 33.0739 12.0144 33.1307 11.7551C33.1874 11.4957 33.2965 11.2507 33.4513 11.035C33.606 10.8192 33.8031 10.6373 34.0306 10.5004C34.2581 10.3635 34.5111 10.2744 34.7741 10.2387C36.9983 9.8617 39.1108 8.99482 40.9587 7.70079C39.8803 5.89933 35.4981 5.04098 31.8083 5.0752C28.0451 5.12379 24.136 5.96004 23.0467 7.701C22.9139 7.91689 24.062 8.46988 24.6844 8.75655Z" fill="white"/>
<path d="M24.349 13.1727C24.4463 13.5034 24.5338 13.834 24.6213 14.1743L28.4137 15.0009C28.5128 14.5253 28.8771 12.6717 28.9777 12.1615C26.9903 11.8155 25.0723 11.1488 23.2988 10.1875C23.7143 11.1584 24.0651 12.1556 24.349 13.1727Z" fill="white"/>
<path d="M59.414 49.6203C52.7336 41.9675 48.2022 26.5938 46.5588 20.3315C46.2467 19.1912 45.6332 18.156 44.7828 17.3347C43.9323 16.5134 42.8764 15.9363 41.7259 15.6641L40.1701 16.0043C42.2009 19.7492 43.1059 22.8637 43.2042 29.1609C43.1981 29.416 43.0933 29.6588 42.912 29.8383C42.7306 30.0178 42.4868 30.1201 42.2316 30.1236C42.103 30.1241 41.9755 30.0989 41.8567 30.0496C41.7379 30.0003 41.6301 29.9278 41.5396 29.8364C41.4491 29.745 41.3777 29.6364 41.3295 29.5171C41.2814 29.3978 41.2575 29.2701 41.2592 29.1415C41.1415 22.3571 39.9641 19.46 38.138 16.4419L36.3485 16.8406C34.961 30.5859 36.7098 44.4669 41.4634 57.4385C41.6485 57.9125 41.9831 58.3133 42.4166 58.5801C42.85 58.8468 43.3586 58.9649 43.8653 58.9165C49.485 58.5643 54.8537 56.463 59.2195 52.9071C59.6804 52.4966 59.9598 51.9201 59.9962 51.3039C60.0327 50.6878 59.8233 50.0823 59.414 49.6203Z" fill="white"/>
<path d="M35.0166 12.1652C35.1201 12.6801 35.4895 14.525 35.5904 15.0046C36.5123 14.8076 38.4521 14.3823 39.3828 14.1781C39.7287 12.8033 40.1806 11.4574 40.7344 10.1523C38.9598 11.1502 37.0249 11.8313 35.0166 12.1652Z" fill="white"/>
<path d="M27.6554 16.8291C27.2359 16.729 26.2922 16.5472 25.8662 16.4401C24.0413 19.49 22.8637 22.3904 22.7446 29.1397C22.7431 29.395 22.6413 29.6394 22.4612 29.8203C22.2811 30.0011 22.0371 30.1039 21.7818 30.1065C21.5266 30.109 21.2806 30.0111 21.0969 29.8339C20.9132 29.6567 20.8065 29.4143 20.7999 29.1591C20.9031 22.8595 21.7961 19.7353 23.8434 15.9928L22.3072 15.6525C22.2974 15.644 21.5387 15.9262 21.5292 15.9248C20.5375 16.2644 19.6454 16.8444 18.9327 17.6132C18.22 18.3819 17.7089 19.3152 17.4452 20.3298C15.8018 26.5921 11.2704 41.9658 4.58999 49.6186C4.38369 49.8526 4.22589 50.1252 4.12575 50.4207C4.0256 50.7161 3.98509 51.0285 4.00657 51.3397C4.04932 51.9437 4.32891 52.5064 4.78448 52.9053C9.20988 56.5022 14.6586 58.6089 20.3527 58.9245C20.8252 58.9274 21.2874 58.7867 21.6781 58.521C22.0688 58.2553 22.3696 57.8772 22.5406 57.4367C27.2948 44.4619 29.0436 30.5776 27.6554 16.8291Z" fill="white"/>
<path d="M34.3556 17.1406H29.6492C30.9187 30.3284 29.3607 43.6352 25.0791 56.173C29.65 55.2983 34.3453 55.2983 38.9162 56.173C34.6489 43.632 33.0944 30.3276 34.3556 17.1406Z" fill="white"/>
</svg>
