<svg width="64" height="64" viewBox="0 0 64 64" fill="none" xmlns="http://www.w3.org/2000/svg">
<path d="M26.3926 37.3808C26.2473 36.9406 26.1411 36.4883 26.0751 36.0294H22.7646C22.524 36.0294 22.2933 35.9338 22.1232 35.7638C21.9531 35.5937 21.8576 35.363 21.8576 35.1224C21.8576 34.8819 21.9531 34.6512 22.1232 34.4811C22.2933 34.311 22.524 34.2154 22.7646 34.2154H25.9119C25.8732 32.6813 26.2392 31.1641 26.9732 29.8164C23.2453 30.2336 19.7171 31.6395 18.1388 33.5805C15.4191 36.9437 11.6096 36.8665 7.43611 35.9567C7.30321 38.0049 6.35524 38.9772 6.03927 41.2266C5.34616 46.8564 12.4667 48.9124 16.7874 46.5054C18.4381 45.4986 19.581 43.6755 20.1977 41.0815C20.2543 40.847 20.4016 40.6445 20.6075 40.5186C20.8133 40.3927 21.0607 40.3538 21.2952 40.4103C21.5297 40.4668 21.7322 40.6142 21.8581 40.82C21.984 41.0258 22.0229 41.2732 21.9664 41.5078C21.5597 43.5065 20.6158 45.3566 19.2363 46.8591C23.0276 49.1811 26.2294 46.8591 28.3064 44.392C28.5866 44.0375 28.7435 43.6012 28.7533 43.1495C28.7631 42.6977 28.6253 42.255 28.3608 41.8887C27.4998 40.4841 26.8374 38.9671 26.3926 37.3808Z" fill="white"/>
<path d="M33.5396 14.5044C33.101 14.238 32.6108 14.0679 32.1015 14.0055C31.5922 13.9432 31.0755 13.9899 30.5856 14.1426C30.0957 14.2953 29.644 14.5505 29.2604 14.8913C28.8767 15.232 28.57 15.6505 28.3606 16.1189C27.5373 17.8303 26.2363 19.2667 24.6146 20.2548C24.7635 20.7568 25.0034 21.2271 25.3221 21.6425L25.957 22.477C26.0302 22.5716 26.0839 22.6798 26.1151 22.7952C26.1463 22.9107 26.1543 23.0312 26.1387 23.1498C26.1231 23.2684 26.0841 23.3827 26.0241 23.4861C25.9641 23.5896 25.8842 23.6801 25.789 23.7526C25.6939 23.825 25.5853 23.8779 25.4696 23.9081C25.3539 23.9384 25.2333 23.9455 25.1149 23.9289C24.9964 23.9123 24.8824 23.8725 24.7794 23.8117C24.6765 23.7508 24.5865 23.6702 24.5149 23.5745L23.8799 22.74C23.0212 21.6075 22.5763 20.2151 22.6191 18.7945L22.9094 9.19836C22.9152 8.78816 22.7604 8.39195 22.4779 8.09445C22.1954 7.79695 21.8078 7.62177 21.3978 7.60638C20.9879 7.59099 20.5882 7.7366 20.2842 8.01208C19.9802 8.28756 19.7961 8.67104 19.7711 9.08052V20.0245C19.7664 20.2619 19.6687 20.488 19.4991 20.6542C19.3294 20.8204 19.1014 20.9135 18.8639 20.9134C18.6265 20.9134 18.3985 20.8202 18.2289 20.6539C18.0594 20.4876 17.9618 20.2615 17.9571 20.0241C17.9571 16.6083 17.9571 7.8589 17.9571 5.54309C17.8903 3.38333 14.7048 3.56765 14.6828 5.61572C14.6823 7.99089 14.683 16.6044 14.6829 20.0243C14.6781 20.2618 14.5804 20.488 14.4106 20.6542C14.2409 20.8205 14.0127 20.9135 13.7752 20.9134C13.5376 20.9132 13.3095 20.8198 13.14 20.6534C12.9705 20.4869 12.8731 20.2606 12.8687 20.023C12.8685 17.2444 12.8691 11.8507 12.8688 9.73347C12.7612 7.74625 9.83023 7.96109 9.81218 9.84241C9.81231 11.9813 9.81211 17.2558 9.81218 20.0228C9.80768 20.2607 9.70988 20.4873 9.53987 20.6538C9.36985 20.8203 9.14124 20.9133 8.90329 20.9128C8.66534 20.9123 8.43712 20.8183 8.26781 20.6511C8.09851 20.4839 8.00167 20.2569 7.99818 20.019V13.1439C7.28519 13.322 6.64499 13.7168 6.16579 14.274C5.68658 14.8312 5.39195 15.5233 5.32249 16.2549C4.85466 21.3599 5.41284 26.5068 6.96417 31.3929C7.24404 32.2726 7.41465 33.1835 7.47217 34.1049C11.6114 34.9054 14.188 35.3345 16.7327 32.4359C18.7735 29.9235 23.3085 28.2002 27.9161 27.9099L33.9115 15.7923C34.0203 15.5697 34.0424 15.3147 33.9737 15.0767C33.905 14.8387 33.7502 14.6347 33.5396 14.5044Z" fill="white"/>
<path d="M37.6073 49.5644C37.7526 49.1242 37.8588 48.6719 37.9248 48.213H41.2353C41.4759 48.213 41.7066 48.1174 41.8766 47.9473C42.0467 47.7773 42.1423 47.5466 42.1423 47.306C42.1423 47.0654 42.0467 46.8347 41.8766 46.6647C41.7066 46.4946 41.4759 46.399 41.2353 46.399H38.088C38.1267 44.8649 37.7607 43.3477 37.0267 42C40.7546 42.4172 44.2828 43.8231 45.8611 45.7641C48.5808 49.1273 52.3903 49.0501 56.5638 48.1403C56.6967 50.1885 57.6446 51.1608 57.9606 53.4102C58.6537 59.0399 51.5332 61.096 47.2125 58.689C45.5618 57.6822 44.4189 55.8591 43.8022 53.265C43.7456 53.0305 43.5982 52.828 43.3924 52.7021C43.1866 52.5763 42.9392 52.5373 42.7047 52.5938C42.4701 52.6504 42.2677 52.7977 42.1418 53.0036C42.0159 53.2094 41.977 53.4568 42.0335 53.6913C42.4402 55.6901 43.384 57.5402 44.7636 59.0427C40.9723 61.3647 37.7705 59.0427 35.6935 56.5756C35.4133 56.2211 35.2564 55.7848 35.2466 55.3331C35.2368 54.8813 35.3746 54.4386 35.6391 54.0723C36.5001 52.6677 37.1624 51.1507 37.6073 49.5644Z" fill="white"/>
<path d="M30.4606 26.6879C30.8992 26.4215 31.3894 26.2515 31.8987 26.1891C32.408 26.1267 32.9247 26.1734 33.4146 26.3261C33.9044 26.4789 34.3562 26.7341 34.7398 27.0748C35.1235 27.4156 35.4302 27.8341 35.6396 28.3025C36.4629 30.0138 37.7639 31.4502 39.3856 32.4383C39.2367 32.9403 38.9968 33.4107 38.6781 33.8261L38.0432 34.6606C37.97 34.7552 37.9163 34.8633 37.8851 34.9788C37.8539 35.0943 37.8459 35.2147 37.8615 35.3333C37.8771 35.4519 37.9161 35.5662 37.9761 35.6697C38.0361 35.7731 38.116 35.8637 38.2112 35.9361C38.3063 36.0086 38.4149 36.0614 38.5306 36.0917C38.6463 36.122 38.7669 36.129 38.8853 36.1125C39.0038 36.0959 39.1178 36.0561 39.2208 35.9952C39.3237 35.9344 39.4137 35.8538 39.4853 35.758L40.1202 34.9236C40.9789 33.7911 41.4239 32.3987 41.381 30.9781L41.0908 21.3819C41.0849 20.9717 41.2397 20.5755 41.5222 20.278C41.8047 19.9805 42.1923 19.8054 42.6023 19.79C43.0122 19.7746 43.4119 19.9202 43.7159 20.1957C44.0199 20.4711 44.2041 20.8546 44.229 21.2641V32.2081C44.2338 32.4455 44.3314 32.6716 44.5011 32.8378C44.6707 33.004 44.8987 33.0971 45.1362 33.097C45.3736 33.0969 45.6016 33.0038 45.7712 32.8375C45.9407 32.6712 46.0383 32.4451 46.043 32.2077C46.043 28.7919 46.043 20.0425 46.043 17.7267C46.1098 15.5669 49.2953 15.7512 49.3173 17.7993C49.3178 20.1745 49.3171 28.788 49.3172 32.2079C49.322 32.4454 49.4198 32.6716 49.5895 32.8378C49.7592 33.0041 49.9874 33.0971 50.225 33.097C50.4625 33.0968 50.6906 33.0034 50.8601 32.837C51.0296 32.6705 51.127 32.4441 51.1314 32.2066C51.1316 29.428 51.1311 24.0343 51.1313 21.9171C51.2389 19.9298 54.1699 20.1447 54.1879 22.026C54.1878 24.1649 54.188 29.4394 54.1879 32.2064C54.1924 32.4443 54.2902 32.6709 54.4602 32.8374C54.6303 33.0039 54.8589 33.0969 55.0968 33.0964C55.3348 33.0959 55.563 33.0019 55.7323 32.8347C55.9016 32.6675 55.9984 32.4405 56.0019 32.2026V25.3274C56.7149 25.5055 57.3551 25.9004 57.8343 26.4576C58.3135 27.0147 58.6082 27.7068 58.6776 28.4384C59.1455 33.5434 58.5873 38.6904 57.036 43.5764C56.7561 44.4562 56.5855 45.367 56.528 46.2884C52.3887 47.089 49.8121 47.5181 47.2674 44.6195C45.2266 42.1071 40.6916 40.3838 36.084 40.0935L30.0888 27.9759C29.98 27.7533 29.9578 27.4983 30.0265 27.2603C30.0952 27.0222 30.2499 26.8183 30.4606 26.6879Z" fill="white"/>
</svg>
