<svg width="64" height="64" viewBox="0 0 64 64" fill="none" xmlns="http://www.w3.org/2000/svg">
<path d="M50.7988 25.6659C50.2523 22.9186 49.138 20.3123 47.5258 18.0102C45.9135 15.708 43.838 13.7594 41.429 12.2864C36.3111 9.53019 26.5432 7.39966 17.0977 17.5006L14.0324 21.2661C13.9584 21.3601 13.9068 21.4694 13.8814 21.5858C13.8559 21.7023 13.8573 21.8228 13.8855 21.9387C13.9137 22.0545 13.9678 22.1625 14.044 22.2548C14.1202 22.3471 14.2164 22.4213 14.3255 22.4718C17.0752 23.6114 20.2177 25.6989 23.2755 24.2566L28.5822 22.8319C28.9069 24.8283 30.1583 29.5804 34.8867 32.0308C33.5911 35.8873 35.6423 40.3694 39.0531 42.6467C40.0029 43.2511 40.5933 44.0559 41.532 43.4061C44.8391 41.638 47.5365 38.9337 49.2781 35.6399C49.587 35.1936 51.5275 32.07 50.7988 25.6659Z" fill="white"/>
<path d="M41.1579 45.3354C40.8393 45.423 40.5061 45.4449 40.1786 45.3998C39.8512 45.3547 39.5365 45.2436 39.2539 45.0733C32.4297 40.951 32.2377 35.5577 32.6938 32.8095C29.8379 30.8855 27.7914 27.989 26.9416 24.668L23.3094 25.6529C22.1601 26.1016 20.9242 26.2895 19.6923 26.2029C18.4603 26.1164 17.2635 25.7575 16.1892 25.1525C15.7842 26.7507 15.9629 28.0321 15.8694 29.6641L13.2531 35.0891C13.0622 35.4947 12.977 35.9414 13.0053 36.3882C13.0336 36.835 13.1744 37.2676 13.4149 37.6463C13.6554 38.025 13.9879 38.3377 14.3817 38.5556C14.7756 38.7736 15.2183 38.8898 15.6693 38.8936L16.4772 38.8937L16.8692 44.0248C16.241 45.2229 16.1145 46.6187 16.5172 47.9089C17.6729 50.2306 19.8792 50.7774 25.3094 49.6723C25.3113 50.5195 25.2579 51.3658 25.1495 52.2061C25.1188 52.4498 25.1452 52.6972 25.2265 52.9292C25.3078 53.1611 25.442 53.3713 25.6184 53.5434C25.7949 53.7156 26.009 53.845 26.244 53.9216C26.479 53.9982 26.7287 54.02 26.9736 53.9852C26.9735 53.9853 40.9545 51.9638 40.9819 51.9598C41.2235 51.9179 41.4525 51.8225 41.6519 51.6807C41.8512 51.5388 42.0158 51.3542 42.1334 51.1405C42.251 50.9268 42.3186 50.6896 42.3312 50.4464C42.3438 50.2032 42.3009 49.9603 42.206 49.7358C41.5929 48.3436 41.2378 46.8529 41.1579 45.3354ZM26.0395 47.8597C25.9156 47.8732 26.0558 47.8491 26.1095 47.8454C26.0856 47.847 26.0621 47.8518 26.0395 47.8597Z" fill="white"/>
</svg>
