<svg width="64" height="64" viewBox="0 0 64 64" fill="none" xmlns="http://www.w3.org/2000/svg">
<path d="M28.6084 45.3059L27.4576 44.481C27.2251 44.3183 26.9558 44.216 26.6739 44.1833C26.392 44.1506 26.1064 44.1884 25.8428 44.2935C25.5792 44.3985 25.3459 44.5674 25.1638 44.7851C24.9817 45.0027 24.8565 45.2622 24.7996 45.5402L23.9849 49.736C23.8862 50.2598 23.6769 50.7565 23.3707 51.1928C23.0646 51.6291 22.6688 51.995 22.2098 52.2659C21.7508 52.5369 21.2393 52.7066 20.7094 52.7639C20.1795 52.8211 19.6434 52.7645 19.1372 52.5977C14.269 51.3438 9.19739 51.0874 4.22754 51.8442C4.31924 52.9949 4.45164 54.1661 4.62475 55.3679C4.63808 55.4658 4.67995 55.5576 4.74516 55.6319C4.81036 55.7061 4.896 55.7595 4.99137 55.7854C5.48025 55.928 17.2327 59.2684 26.9077 57.1602C27.023 57.1352 27.1259 57.0706 27.1985 56.9775C27.2711 56.8845 27.3087 56.769 27.3049 56.651C27.3186 52.9698 28.052 49.3268 29.4639 45.9271L28.6084 45.3059Z" fill="white"/>
<path d="M53.1418 20.0703H10.8673C8.67772 23.6246 3.2598 34.1143 4.08471 49.8081C4.41055 49.747 4.74665 49.6961 5.08271 49.6553C10.0005 49.0418 14.9905 49.3841 19.7785 50.6635C20.01 50.7361 20.2541 50.7591 20.4951 50.731C20.7361 50.7028 20.9684 50.6242 21.1769 50.5003C21.3854 50.3763 21.5655 50.2098 21.7053 50.0115C21.8451 49.8133 21.9416 49.5878 21.9884 49.3497L22.8032 45.1539C22.9273 44.5431 23.2017 43.9728 23.6015 43.4946C24.0013 43.0164 24.5139 42.6453 25.0931 42.4149C25.6722 42.1844 26.2997 42.1019 26.9187 42.1747C27.5377 42.2476 28.1289 42.4735 28.6388 42.832L29.5655 43.504L30.4107 44.1049C32.0751 41.4717 31.9284 41.4845 33.5882 44.1051C34.0302 43.7937 34.9222 43.1523 35.3602 42.8319C35.8701 42.4734 36.4612 42.2475 37.0803 42.1747C37.6993 42.1019 38.3268 42.1844 38.9059 42.4149C39.4851 42.6453 39.9977 43.0164 40.3974 43.4946C40.7972 43.9729 41.0716 44.5431 41.1957 45.1539L42.0105 49.3497C42.0569 49.5869 42.1528 49.8117 42.2918 50.0094C42.4308 50.2071 42.6099 50.3733 42.8174 50.4972C43.0249 50.6211 43.2562 50.7 43.4962 50.7286C43.7361 50.7573 43.9795 50.7351 44.2103 50.6635C48.9921 49.3348 53.9852 48.9406 58.9162 49.5026C59.2523 49.5331 59.5884 49.584 59.9244 49.6451C60.6984 34.0328 55.3212 23.6145 53.1418 20.0703Z" fill="white"/>
<path d="M21.6929 18.0319V11.3104C21.6968 11.0428 21.8058 10.7875 21.9963 10.5997C22.1869 10.4118 22.4438 10.3065 22.7114 10.3065C22.979 10.3065 23.2358 10.4118 23.4264 10.5997C23.6169 10.7875 23.7259 11.0428 23.7298 11.3104V18.0319H40.2688V11.3104C40.2729 11.043 40.382 10.788 40.5726 10.6003C40.7631 10.4127 41.0198 10.3075 41.2872 10.3075C41.5547 10.3075 41.8114 10.4127 42.0019 10.6003C42.1924 10.788 42.3016 11.043 42.3057 11.3104V18.0319C42.7903 18.0343 52.1513 18.0302 52.3575 18.0319V11.2289C52.3065 9.18194 48.905 7.73577 41.9493 6.80904C35.3456 5.92303 28.6531 5.92303 22.0494 6.80904C15.0936 7.73577 11.6921 9.18191 11.6514 11.2493V18.0319H21.6929ZM31.9993 15.8627C31.0735 15.8536 30.1886 15.4794 29.5372 14.8215C28.8857 14.1635 28.5202 13.2751 28.5202 12.3492C28.5203 11.4233 28.8857 10.5348 29.5372 9.87689C30.1887 9.21898 31.0735 8.84481 31.9994 8.83571C32.9252 8.84496 33.8099 9.21921 34.4612 9.87712C35.1126 10.535 35.478 11.4234 35.478 12.3492C35.4779 13.2751 35.1125 14.1634 34.4612 14.8213C33.8098 15.4792 32.9251 15.8535 31.9993 15.8627Z" fill="white"/>
<path d="M44.8517 52.5953C44.346 52.7562 43.812 52.8083 43.2848 52.7484C42.7575 52.6885 42.2489 52.5178 41.7921 52.2476C41.3354 51.9775 40.941 51.6138 40.6346 51.1806C40.3282 50.7473 40.1168 50.2542 40.0142 49.7335L39.1995 45.5377C39.1431 45.2594 39.0182 44.9996 38.8361 44.7816C38.6541 44.5637 38.4207 44.3945 38.1569 44.2894C37.8931 44.1843 37.6072 44.1465 37.3252 44.1796C37.0432 44.2126 36.7738 44.3154 36.5414 44.4786C36.0654 44.8408 35.01 45.5613 34.5352 45.9146C35.9467 49.3179 36.6801 52.9642 36.6942 56.6486C36.6903 56.7666 36.728 56.8821 36.8006 56.9751C36.8731 57.0682 36.976 57.1328 37.0914 57.1578C39.43 57.6377 41.8126 57.8698 44.1999 57.8504C49.2032 57.7874 54.1785 57.0928 59.0077 55.783C59.1031 55.7571 59.1887 55.7037 59.2539 55.6295C59.3191 55.5552 59.361 55.4634 59.3743 55.3655C59.5474 54.1128 59.69 52.8805 59.7817 51.6787C54.7946 50.963 49.7138 51.2749 44.8517 52.5953Z" fill="white"/>
<path d="M31.4999 8C30.3005 8.01715 29.1561 8.49882 28.314 9.34089C27.472 10.183 27 11.3178 27 12.5001C27 13.6824 27.4721 14.8172 28.3142 15.6592C29.1562 16.5013 30.3007 16.9829 31.5001 17C32.6995 16.9828 33.8439 16.5012 34.686 15.6591C35.528 14.817 36 13.6822 36 12.4999C36 11.3176 35.5279 10.1828 34.6859 9.34076C33.8438 8.49872 32.6993 8.0171 31.4999 8Z" fill="white"/>
</svg>
