<svg width="64" height="64" viewBox="0 0 64 64" fill="none" xmlns="http://www.w3.org/2000/svg">
<path d="M47.6573 23.9522C47.6573 23.0032 47.0368 22.8572 46.2704 22.7113C41.4528 21.9083 36.8541 20.5214 32.9854 17.4556C32.2554 16.8717 31.635 16.9082 30.905 17.4556C28.7152 19.1345 26.3064 20.4849 23.6421 21.2149C21.6712 21.7623 19.7004 22.2733 17.693 22.6383C16.5981 22.8572 16.1236 23.2587 16.2331 24.3901C16.3061 25.1931 16.2331 26.0325 16.2331 26.8354C16.1966 26.8354 16.5981 32.748 16.9996 35.7043C17.693 40.7044 19.8829 45.0111 23.8976 48.1134C26.1604 49.8652 28.6057 51.3251 31.051 52.8215C31.489 53.077 32.3284 53.0405 32.8029 52.785C34.7008 51.7266 36.5256 50.6317 38.314 49.4273C42.6572 46.471 45.431 42.4563 46.5624 37.3102C47.5113 32.9305 47.6208 28.4413 47.6573 23.9522Z" fill="white"/>
<path d="M10.1014 15.0816L11.2693 16.2495C9.99187 17.4904 8.75096 18.7313 7.47356 19.8992C6.67062 20.6292 6.74361 21.2496 7.51006 21.9431C8.05752 22.454 8.56848 22.965 9.07944 23.5124C9.77289 24.2424 10.3568 24.3519 11.1233 23.5489C12.2547 22.308 13.4591 21.1036 14.7365 19.7167L15.1745 20.1547C15.3205 20.3372 15.4665 20.4832 15.6125 20.5927L15.649 20.6292C16.3789 21.1401 17.2548 20.9576 18.0943 20.7387C20.1746 20.2277 22.2185 19.7167 24.5543 19.1328L24.7733 19.0963H24.8098C24.2623 18.5853 23.7513 18.0744 23.2769 17.5999L20.1381 14.4246C21.525 13.0742 22.8024 11.8333 24.0433 10.6289C24.6638 10.0085 24.7003 9.4245 24.0433 8.84054C23.4594 8.32958 22.9484 7.74562 22.3645 7.19816C21.452 6.32223 21.16 6.28573 20.2476 7.19816C19.1162 8.36607 18.0213 9.53399 16.6709 10.9939L15.649 9.97196C13.8606 8.14709 11.9992 6.39522 10.2109 4.53386C9.51741 3.80391 8.93345 3.84041 8.24 4.53386C7.14508 5.66528 6.05016 6.76019 4.95525 7.85511C4.00632 8.84054 4.00632 9.02303 4.99174 10.0085C6.67062 11.6873 8.34949 13.3662 10.1014 15.0816Z" fill="white"/>
<path d="M53.8988 15.0802L52.7309 16.2481C54.0083 17.4891 55.2492 18.73 56.5266 19.8979C57.3296 20.6278 57.2566 21.2483 56.4901 21.9417C55.9427 22.4527 55.4317 22.9636 54.9208 23.5111C54.2273 24.2411 53.6434 24.3505 52.8769 23.5476C51.7455 22.3067 50.5411 21.1023 49.2637 19.7154L48.8257 20.1534C48.6797 20.3358 48.5337 20.4818 48.3877 20.5913L48.3513 20.6278C47.6213 21.1388 46.7454 20.9563 45.9059 20.7373C43.8256 20.2264 41.7817 19.7154 39.4459 19.1314L39.2269 19.0949H39.1904C39.7379 18.584 40.2489 18.073 40.7233 17.5985L43.8621 14.4598C42.4752 13.1094 41.1978 11.8685 39.9569 10.6641C39.3364 10.0436 39.2999 9.45965 39.9569 8.8757C40.5408 8.36473 41.0518 7.78078 41.6357 7.23332C42.5482 6.35738 42.8402 6.32089 43.7526 7.23332C44.884 8.40123 45.9789 9.56914 47.3293 11.029L48.3513 10.0071C50.1396 8.18225 52.001 6.43038 53.7893 4.56902C54.4828 3.83907 55.0668 3.87557 55.7602 4.56902C56.8551 5.70043 57.95 6.79535 59.045 7.89027C59.9939 8.8757 59.9939 9.05818 59.0085 10.0436C57.3296 11.686 55.6507 13.3649 53.8988 15.0802Z" fill="white"/>
<path d="M16.1238 42.3821C14.08 44.3894 11.9996 46.3238 10.0288 48.4041C9.22583 49.2435 8.60538 50.2655 8.05792 51.3239C7.25498 52.9663 6.59803 54.6451 5.94108 56.324C5.75859 56.762 5.68559 57.5649 5.90458 57.7109C6.26955 57.9664 6.963 57.9664 7.40097 57.8204C9.29883 57.2 11.1602 56.47 13.058 55.7766C13.642 55.5576 14.3355 55.4116 14.7369 54.9736C16.9268 52.7838 19.0436 50.5209 21.051 48.4041C19.5546 46.1778 18.1312 44.0609 16.6713 41.8711C16.5618 42.0171 16.3063 42.1631 16.1238 42.3821Z" fill="white"/>
<path d="M55.2118 49.9708C55.1023 49.7153 54.9198 49.4233 54.7373 49.2409C52.219 46.7955 49.7007 44.3502 47.2189 41.9414C45.759 44.0947 44.3356 46.2116 42.8027 48.4744C44.8101 50.5548 46.8539 52.7446 48.9343 54.8979C49.1898 55.1899 49.5912 55.4089 49.9562 55.5184C52.1825 56.3578 54.4089 57.1608 56.6352 57.9272C57.0002 58.0367 57.6571 58.0367 57.8031 57.8177C58.0221 57.5257 58.0586 56.9053 57.9126 56.5403C57.0732 54.314 56.1242 52.1606 55.2118 49.9708Z" fill="white"/>
</svg>
