<svg width="64" height="64" viewBox="0 0 64 64" fill="none" xmlns="http://www.w3.org/2000/svg">
<path d="M26.2512 36.4021C26.2488 35.0849 26.7034 33.8078 27.5374 32.7883C27.1524 32.0557 26.5511 31.4594 25.8154 31.0804C25.0796 30.7013 24.245 30.558 23.425 30.6697C22.6049 30.7815 21.8391 31.143 21.2317 31.7051C20.6242 32.2673 20.2045 33.0027 20.0296 33.8117C19.8546 34.6206 19.9329 35.4638 20.2538 36.2267C20.5748 36.9896 21.1227 37.6352 21.8233 38.0758C22.5239 38.5165 23.3432 38.7308 24.1698 38.6896C24.9964 38.6485 25.7903 38.3539 26.4437 37.8458C26.313 37.3758 26.2482 36.8899 26.2512 36.4021Z" fill="white"/>
<path d="M18.2097 34.6693C18.2078 33.7876 18.4098 32.9172 18.7999 32.1264C19.1899 31.3356 19.7576 30.6457 20.4585 30.1106C20.277 29.4468 19.9293 28.8403 19.4482 28.3484C18.9671 27.8564 18.3684 27.4953 17.7089 27.2991C17.0494 27.1029 16.3507 27.0782 15.6789 27.2272C15.0071 27.3762 14.3845 27.694 13.8697 28.1507C11.289 25.8552 9.22919 23.0342 7.82867 19.8769C6.42815 16.7197 5.7193 13.2994 5.74972 9.84561C5.74608 9.61595 5.65229 9.39693 5.48859 9.2358C5.32489 9.07468 5.10441 8.98438 4.87472 8.98438C4.64503 8.98438 4.42455 9.07468 4.26085 9.2358C4.09715 9.39693 4.00336 9.61595 3.99972 9.84561C3.97238 13.5813 4.74899 17.2791 6.27687 20.6881C7.80474 24.0971 10.0481 27.1376 12.8547 29.6031C12.6074 30.2143 12.5134 30.8769 12.581 31.5328C12.6486 32.1887 12.8757 32.8182 13.2425 33.3661C13.6092 33.9141 14.1046 34.364 14.6852 34.6766C15.2658 34.9892 15.9141 35.1549 16.5735 35.1592C17.0261 35.1304 18.0866 35.0844 18.2097 34.6693Z" fill="white"/>
<path d="M59.9998 9.84625C59.9963 9.61647 59.9026 9.39729 59.7389 9.23603C59.5751 9.07477 59.3546 8.98438 59.1248 8.98438C58.895 8.98438 58.6744 9.07477 58.5107 9.23603C58.347 9.39729 58.2532 9.61647 58.2498 9.84625C58.2968 16.226 55.8364 22.369 51.3985 26.9525C50.9873 27.3725 50.5672 27.775 50.1297 28.1512C49.6178 27.6873 48.995 27.3632 48.3213 27.21C47.6477 27.0569 46.9459 27.0799 46.2837 27.2769C45.6216 27.4739 45.0213 27.8381 44.5409 28.3346C44.0605 28.8311 43.7161 29.443 43.541 30.1112C44.2604 30.6586 44.8388 31.3696 45.2284 32.1852C45.618 33.0009 45.8074 33.8977 45.781 34.8012C46.5148 35.1226 47.3275 35.2183 48.1159 35.0761C48.9042 34.934 49.6323 34.5604 50.2076 34.0029C50.7828 33.4455 51.1791 32.7294 51.346 31.946C51.5129 31.1625 51.4428 30.3471 51.1447 29.6036C53.9513 27.1382 56.1947 24.0977 57.7226 20.6887C59.2505 17.2797 60.0271 13.5819 59.9998 9.84625Z" fill="white"/>
<path d="M43.8995 35.6954C44.1424 34.7483 44.0318 33.7451 43.5885 32.8736C43.1452 32.0022 42.3996 31.3221 41.4911 30.9606C40.5826 30.5992 39.5736 30.5811 38.6527 30.9099C37.7319 31.2386 36.9624 31.8916 36.4883 32.7467C37.0688 33.4509 37.4726 34.2837 37.6659 35.1756C37.8592 36.0675 37.8364 36.9928 37.5995 37.8741C38.1269 38.2658 38.7418 38.5229 39.391 38.623C40.0403 38.723 40.7041 38.6631 41.3249 38.4484C41.9457 38.2337 42.5047 37.8707 42.9534 37.391C43.4021 36.9112 43.7269 36.3291 43.8995 35.6954Z" fill="white"/>
<path d="M37.5388 48.2752L34.4763 46.5952L32.9013 43.7252C32.9013 42.8811 32.9013 41.1686 32.9013 40.3215C33.614 40.1597 34.2691 39.8068 34.7963 39.3008C35.3235 38.7947 35.703 38.1547 35.8939 37.4493C36.0848 36.7439 36.08 35.9998 35.88 35.2969C35.6799 34.5941 35.2922 33.959 34.7585 33.4598C34.2248 32.9606 33.5651 32.6163 32.8505 32.4637C32.1358 32.3111 31.3931 32.356 30.702 32.5937C30.011 32.8314 29.3977 33.2528 28.9281 33.8126C28.4584 34.3725 28.1501 35.0498 28.0363 35.7716C27.8902 36.7825 28.1294 37.8113 28.7064 38.6541C29.2834 39.4969 30.156 40.092 31.1513 40.3215C31.1521 41.1749 31.1507 42.8924 31.1513 43.7427L29.5851 46.5952L26.5138 48.2752C26.3777 48.3525 26.2645 48.4644 26.1857 48.5997C26.1069 48.735 26.0654 48.8887 26.0654 49.0452C26.0654 49.2018 26.1069 49.3555 26.1857 49.4907C26.2645 49.626 26.3777 49.738 26.5138 49.8152L29.5851 51.4865L31.2651 54.5577C31.34 54.6954 31.4506 54.8103 31.5854 54.8904C31.7201 54.9705 31.874 55.0127 32.0307 55.0127C32.1874 55.0127 32.3413 54.9705 32.476 54.8904C32.6108 54.8103 32.7214 54.6954 32.7963 54.5577L34.4763 51.4865L37.5388 49.8152C37.6756 49.7385 37.7895 49.6267 37.8687 49.4914C37.948 49.3561 37.9898 49.2021 37.9898 49.0452C37.9898 48.8884 37.948 48.7344 37.8687 48.5991C37.7895 48.4637 37.6756 48.3519 37.5388 48.2752Z" fill="white"/>
<path d="M20.9384 49.0469C20.9384 48.932 20.9158 48.8182 20.8718 48.712C20.8279 48.6058 20.7634 48.5093 20.6821 48.4281C20.6009 48.3468 20.5044 48.2824 20.3982 48.2384C20.2921 48.1945 20.1783 48.1718 20.0634 48.1719H18.0596C17.8275 48.1719 17.6049 48.2641 17.4409 48.4282C17.2768 48.5923 17.1846 48.8148 17.1846 49.0469C17.1846 49.2789 17.2768 49.5015 17.4409 49.6656C17.6049 49.8297 17.8275 49.9219 18.0596 49.9219H20.0634C20.1783 49.9219 20.2921 49.8993 20.3982 49.8553C20.5044 49.8114 20.6009 49.7469 20.6821 49.6657C20.7634 49.5844 20.8279 49.4879 20.8718 49.3818C20.9158 49.2756 20.9384 49.1618 20.9384 49.0469Z" fill="white"/>
<path d="M20.8646 43.5896C20.7131 43.4176 20.5001 43.3119 20.2716 43.2953C20.043 43.2786 19.817 43.3523 19.6422 43.5005C19.4674 43.6487 19.3577 43.8596 19.3367 44.0878C19.3157 44.316 19.3851 44.5433 19.5299 44.7209L20.9457 46.3927C21.0199 46.4808 21.1107 46.5534 21.213 46.6063C21.3152 46.6592 21.4269 46.6914 21.5416 46.701C21.6564 46.7107 21.7719 46.6976 21.8815 46.6625C21.9912 46.6274 22.0928 46.5711 22.1806 46.4966C22.2685 46.4222 22.3407 46.3311 22.3933 46.2287C22.4459 46.1263 22.4777 46.0145 22.487 45.8997C22.4962 45.7849 22.4828 45.6695 22.4473 45.5599C22.4119 45.4504 22.3552 45.3489 22.2804 45.2614L20.8646 43.5896Z" fill="white"/>
<path d="M20.9458 51.6992L19.5299 53.371C19.3851 53.5486 19.3157 53.776 19.3367 54.0042C19.3577 54.2324 19.4674 54.4433 19.6423 54.5915C19.8171 54.7397 20.0431 54.8134 20.2717 54.7967C20.5003 54.78 20.7132 54.6743 20.8647 54.5023L22.2805 52.8305C22.4254 52.6529 22.4949 52.4256 22.4739 52.1973C22.4529 51.969 22.3432 51.7581 22.1684 51.6099C21.9935 51.4616 21.7674 51.388 21.5388 51.4047C21.3102 51.4214 21.0973 51.5271 20.9458 51.6992Z" fill="white"/>
<path d="M45.9973 48.1719H43.9944C43.7645 48.1752 43.5451 48.2688 43.3837 48.4325C43.2223 48.5963 43.1318 48.817 43.1318 49.0469C43.1318 49.2768 43.2223 49.4975 43.3837 49.6612C43.5451 49.8249 43.7645 49.9186 43.9944 49.9219H45.9973C46.2272 49.9186 46.4465 49.8249 46.6079 49.6612C46.7693 49.4975 46.8598 49.2768 46.8598 49.0469C46.8598 48.817 46.7694 48.5963 46.608 48.4326C46.4466 48.2688 46.2272 48.1752 45.9973 48.1719Z" fill="white"/>
<path d="M43.1937 43.5897L41.777 45.2615C41.6321 45.4391 41.5628 45.6665 41.5838 45.8947C41.6048 46.1229 41.7145 46.3338 41.8893 46.482C42.0642 46.6302 42.2902 46.7038 42.5187 46.6872C42.7473 46.6705 42.9602 46.5648 43.1117 46.3928L44.5284 44.721C44.6733 44.5434 44.7427 44.316 44.7217 44.0878C44.7007 43.8596 44.591 43.6487 44.4161 43.5005C44.2413 43.3523 44.0153 43.2786 43.7867 43.2953C43.5581 43.312 43.3452 43.4177 43.1937 43.5897Z" fill="white"/>
<path d="M43.1118 51.6991C42.9603 51.5271 42.7474 51.4213 42.5188 51.4047C42.2901 51.388 42.0641 51.4617 41.8893 51.6099C41.7144 51.7581 41.6047 51.969 41.5838 52.1973C41.5628 52.4255 41.6322 52.6529 41.7771 52.8305L43.1938 54.5022C43.3438 54.6792 43.558 54.7894 43.7893 54.8084C44.0205 54.8275 44.2498 54.7539 44.4268 54.6039C44.6038 54.4539 44.714 54.2397 44.733 54.0085C44.7521 53.7772 44.6785 53.5479 44.5285 53.3709L43.1118 51.6991Z" fill="white"/>
</svg>
