<svg width="64" height="64" viewBox="0 0 64 64" fill="none" xmlns="http://www.w3.org/2000/svg">
<path d="M58.2096 34.661C55.8049 29.7053 51.4086 26.3098 45.5796 23.6609C45.6657 21.3136 45.0751 18.991 43.8783 16.9699C42.6815 14.9488 40.9289 13.3143 38.8294 12.2611C28.795 4.71043 1.75212 20.5494 4.14974 32.9512C4.11956 36.711 7.46956 43.601 12.0796 45.231C14.0355 45.8307 16.074 46.1176 18.1196 46.081C19.4928 46.0795 20.8638 45.9691 22.2196 45.751C21.6596 45.121 21.1496 44.511 20.6996 43.931C19.0715 41.7041 17.4807 39.4167 17.0196 36.581C14.3834 37.1811 11.6292 36.9963 9.09681 36.0494C10.2921 31.7801 14.3123 26.885 19.6778 23.2031C27.0372 18.1519 35.441 16.4204 39.2247 19.1738C39.2824 19.2204 39.372 19.2306 39.4196 19.2709C39.2621 20.0455 39.0102 20.7977 38.6696 21.511C34.4191 20.7629 31.0056 20.8355 27.5596 22.5009C25.8978 22.9046 18.119 27.2072 18.9898 36.1711C19.4581 39.0743 21.1694 41.2433 22.9794 43.561C27.4469 48.6329 32.7203 52.4361 42.9994 53.5712C52.5845 54.5066 64.5568 46.8817 58.2096 34.661ZM18.546 21.5537C12.978 25.3753 8.86858 30.2923 7.35521 34.8862C6.68196 34.2145 6.23589 33.349 6.07961 32.411C4.81145 23.2693 22.0846 11.9415 31.9796 12.3412C35.6021 12.3873 38.9549 13.4667 39.5276 17.0117C34.7412 14.4369 26.3363 16.2082 18.546 21.5537ZM27.4496 32.651L27.3196 32.721C26.9163 32.0967 26.5842 31.4292 26.3296 30.731C28.0226 30.0809 29.8265 29.7684 31.6396 29.811C30.3142 30.8587 28.9137 31.8079 27.4496 32.651ZM33.8196 27.931C31.1548 27.6053 28.4509 27.8856 25.9096 28.751C25.8444 28.0088 25.9683 27.2623 26.2696 26.581C28.3573 22.7185 33.4807 22.8109 37.6595 23.3608C36.574 25.0376 35.2841 26.5727 33.8196 27.931ZM37.9796 41.181C37.0996 40.781 36.2196 40.341 35.3796 39.871C36.8965 38.7398 38.3058 37.4711 39.5896 36.081C40.6917 34.903 41.6983 33.6389 42.5996 32.301C48.4496 34.851 52.8896 38.881 54.0396 42.661C50.3296 44.441 44.0196 43.881 37.9796 41.181ZM56.6696 40.161C56.4419 40.654 56.1306 41.104 55.7496 41.491C54.1996 37.361 49.6696 33.261 43.6296 30.571C44.4536 29.0651 45.0341 27.4383 45.3496 25.751C50.7611 28.2555 58.6948 34.2246 56.6696 40.161Z" fill="white"/>
</svg>
