<svg width="64" height="64" viewBox="0 0 64 64" fill="none" xmlns="http://www.w3.org/2000/svg">
<path d="M59.7333 29.2709C59.0905 28.2183 58.8124 26.9832 58.9421 25.7566C59.5974 9.04926 42.765 7.04109 41.6894 7.34327C41.6294 7.34407 41.5717 7.3662 41.5266 7.40569C41.4814 7.44518 41.4518 7.49945 41.443 7.55879C41.4477 8.26527 40.69 8.91265 41.484 9.25416C43.4775 10.7236 46.4163 14.1454 47.5466 21.8109C47.5661 21.9446 47.559 22.0808 47.5255 22.2117C47.4921 22.3426 47.4331 22.4656 47.3519 22.5735C47.2707 22.6815 47.1689 22.7723 47.0524 22.8407C46.9359 22.9091 46.807 22.9537 46.6732 22.972C46.54 22.9935 46.4039 22.9881 46.2729 22.9561C46.1419 22.924 46.0186 22.8661 45.9104 22.7856C45.8021 22.7052 45.7111 22.6038 45.6427 22.4876C45.5743 22.3713 45.5298 22.2426 45.512 22.1089C44.505 15.3065 42.0286 12.3061 40.4154 11.0319C40.2449 10.9367 40.0308 10.6204 39.9119 10.8366C37.2094 13.8474 32.0614 13.6008 32.01 13.6008C31.9084 13.5903 26.82 13.8618 24.0876 10.8264C23.9545 10.5998 23.7735 10.9507 23.5841 11.0421C21.9811 12.2958 19.4945 15.3065 18.4874 22.1089C18.4441 22.3753 18.2978 22.614 18.0801 22.7735C17.8623 22.933 17.5906 23.0004 17.3235 22.9613C17.0564 22.9222 16.8154 22.7796 16.6526 22.5644C16.4897 22.3492 16.418 22.0785 16.4529 21.8109C17.5832 14.1659 20.5118 10.7339 22.5052 9.2645C23.3071 8.84288 22.5921 8.44578 22.5566 7.55873C22.5477 7.49937 22.5181 7.4451 22.4729 7.40559C22.4277 7.36607 22.37 7.34389 22.31 7.34298C21.093 7.09598 4.50573 8.96957 5.05738 25.7569C5.18638 26.9866 4.90844 28.2246 4.26619 29.2812C4.1167 29.5422 4.03202 29.8354 4.01927 30.1359C4.00652 30.4365 4.06606 30.7358 4.19291 31.0086C4.31975 31.2814 4.51019 31.5197 4.74824 31.7037C4.98628 31.8877 5.26499 32.0118 5.56096 32.0658C7.50745 32.3559 14.879 33.4935 14.3979 29.4148C14.1409 27.9864 14.8705 26.6505 16.5454 25.438C16.9766 25.995 17.2801 26.6398 17.4346 27.3269C17.5891 28.0141 17.5907 28.7268 17.4394 29.4146C17.2047 30.3281 17.0466 31.2596 16.9667 32.1993C16.7921 35.1998 16.6893 40.728 17.9018 44.16C18.2626 45.1353 18.2405 46.2111 17.8401 47.1707C17.032 49.116 16.3925 51.1271 15.9289 53.1819C15.914 53.2405 15.9202 53.3026 15.9465 53.3571C15.9729 53.4116 16.0176 53.4551 16.0728 53.4799C21.1244 55.5688 26.5334 56.6576 31.9998 56.6858C37.4662 56.6576 42.8752 55.5688 47.9268 53.4799C47.982 53.4551 48.0267 53.4116 48.053 53.3571C48.0793 53.3026 48.0856 53.2405 48.0706 53.1819C47.607 51.1271 46.9676 49.116 46.1594 47.1708C45.759 46.2111 45.737 45.1354 46.0977 44.1601C47.3103 40.7281 47.2075 35.1998 47.0328 32.1994C46.9529 31.2597 46.7948 30.3282 46.5601 29.4147C46.4088 28.7269 46.4105 28.0142 46.565 27.327C46.7194 26.6399 47.023 25.995 47.4541 25.4381C49.129 26.6506 49.8586 27.9865 49.6017 29.4045C49.5069 29.9659 49.625 30.5425 49.9329 31.0214C50.2408 31.5003 50.7163 31.8471 51.2664 31.9939C53.6251 32.5252 56.0697 32.5497 58.4386 32.0658C58.7354 32.0113 59.0148 31.8863 59.2533 31.7015C59.4918 31.5166 59.6825 31.2772 59.8093 31.0034C59.9361 30.7296 59.9954 30.4294 59.9822 30.1279C59.969 29.8265 59.8836 29.5326 59.7333 29.2709Z" fill="white"/>
</svg>
