<svg width="64" height="64" viewBox="0 0 64 64" fill="none" xmlns="http://www.w3.org/2000/svg">
<path d="M42.4573 36.8971L19.9368 14.3766C19.7617 14.2042 19.5319 14.0983 19.2871 14.0773L14.8414 13.7342C14.6937 13.7268 14.5461 13.7504 14.4081 13.8035C14.2701 13.8566 14.1448 13.9381 14.0402 14.0426C13.9357 14.1472 13.8542 14.2725 13.8011 14.4105C13.748 14.5485 13.7244 14.6961 13.7318 14.8438L14.0749 19.2895C14.0959 19.5343 14.2018 19.7641 14.3742 19.9392L36.8947 42.4597L34.5003 44.8541C34.5003 44.8541 4.95026 15.4301 4.88404 15.5598L4.00092 4.13479C4.00208 4.09838 4.01707 4.06377 4.04283 4.038C4.0686 4.01224 4.1032 3.99725 4.13962 3.99609L15.5568 4.88666C15.5897 4.89213 15.6203 4.90738 15.6444 4.93042L45.0342 34.3202L42.4573 36.8971Z" fill="white"/>
<path d="M32.2809 49.9923C34.4586 47.8094 37.6634 44.6135 39.8145 42.4587L16.1041 18.7483L15.8851 15.8867L18.7467 16.1057L42.4571 39.8161C44.5732 37.7031 47.842 34.4288 49.9907 32.2825C50.0147 32.2586 50.0467 32.2447 50.0805 32.2433C50.1143 32.242 50.1473 32.2533 50.1732 32.2752L54.0422 36.1442C54.0636 36.1647 54.0769 36.1922 54.0796 36.2217C54.0823 36.2513 54.0741 36.2808 54.0567 36.3048L48.9467 44.9626L48.8957 45.0575L45.0559 48.8973L44.9756 48.9483L36.3032 54.0583C36.2792 54.0757 36.2497 54.0838 36.2202 54.0812C36.1906 54.0785 36.1631 54.0652 36.1426 54.0438L32.2736 50.1748C32.2518 50.1489 32.2404 50.1159 32.2418 50.0821C32.2431 50.0483 32.2571 50.0163 32.2809 49.9923Z" fill="white"/>
<path d="M50.1144 54.0884L46.4498 50.4238L50.4283 46.4453L54.0928 50.1099C55.14 49.9128 56.2228 50.0562 57.1826 50.5192C58.1423 50.9822 58.9285 51.7404 59.426 52.6827C59.9235 53.625 60.1061 54.7019 59.9471 55.7556C59.788 56.8092 59.2957 57.7842 58.5422 58.5377C57.7887 59.2912 56.8137 59.7835 55.76 59.9426C54.7064 60.1017 53.6295 59.9191 52.6872 59.4216C51.7448 58.9241 50.9866 58.1379 50.5236 57.1781C50.0606 56.2184 49.9173 55.1356 50.1144 54.0884Z" fill="white"/>
</svg>
