<svg width="64" height="64" viewBox="0 0 64 64" fill="none" xmlns="http://www.w3.org/2000/svg">
<path d="M29.1126 31.8465C30.4047 37.558 25.7861 42.7285 21.345 42.7285C19.4282 42.7285 17.7887 41.7076 16.7861 39.8274C15.1862 39.8823 11.1546 39.7055 9.47561 36.8349C9.12824 36.2376 9.00936 35.5336 9.12511 34.8603C1.64086 32.8581 1.31474 28.0983 1.11674 25.2124C1.06186 24.4323 1.01611 23.7558 0.857735 23.3048C0.61086 22.6009 0.86686 21.8816 1.48549 21.5008C2.10111 21.1199 2.87811 21.2174 3.38099 21.7354C8.66774 27.205 26.3415 19.614 29.1126 31.8465Z" fill="white"/>
<path d="M63.1452 23.2894C62.9807 23.7557 62.9349 24.4322 62.8801 25.2123C62.6819 28.0982 62.3559 32.8581 54.8717 34.8602C54.9874 35.5337 54.8687 36.2376 54.5213 36.8318C52.8453 39.7054 48.8076 39.8792 47.2108 39.8273C46.2082 41.7076 44.5657 42.7284 42.6519 42.7284C38.3137 42.7284 33.5691 37.6543 34.8843 31.8464C35.7193 28.1592 37.9286 26.2728 40.7231 25.2856C47.2041 23.0027 56.9249 25.5542 60.6161 21.7354C61.1188 21.2174 61.8959 21.1198 62.5114 21.5008C63.1301 21.8816 63.3859 22.6008 63.1452 23.2894Z" fill="white"/>
</svg>
