<svg xmlns="http://www.w3.org/2000/svg" viewBox="0 0 48 48" width="48" height="48">
  <!-- Handle -->
  <line x1="12" y1="44" x2="30" y2="12" stroke="#c8b89a" stroke-width="2" stroke-linecap="round"/>
  <!-- Handle grip wrap -->
  <line x1="15" y1="39" x2="16" y2="37" stroke="#c8b89a" stroke-width="1.5" stroke-linecap="round" opacity="0.5"/>
  <line x1="17" y1="35" x2="18" y2="33" stroke="#c8b89a" stroke-width="1.5" stroke-linecap="round" opacity="0.5"/>
  <!-- Pommel -->
  <circle cx="11" cy="45" r="1.5" fill="#c8b89a" fill-opacity="0.15" stroke="#c8b89a" stroke-width="2"/>
  <!-- Axe head - right blade -->
  <path d="M30 12 C34 6, 42 6, 40 14 C38 18, 34 20, 30 18Z" fill="#c8b89a" fill-opacity="0.15" stroke="#c8b89a" stroke-width="2" stroke-linejoin="round" stroke-linecap="round"/>
  <!-- Axe head - left blade -->
  <path d="M28 14 C22 8, 18 8, 20 16 C22 20, 24 20, 28 18Z" fill="#c8b89a" fill-opacity="0.15" stroke="#c8b89a" stroke-width="2" stroke-linejoin="round" stroke-linecap="round"/>
  <!-- Blade edge details -->
  <path d="M34 8 C38 8, 40 12, 38 16" fill="none" stroke="#c8b89a" stroke-width="1.5" stroke-linecap="round" opacity="0.5"/>
  <path d="M24 10 C20 10, 20 14, 22 18" fill="none" stroke="#c8b89a" stroke-width="1.5" stroke-linecap="round" opacity="0.5"/>
</svg>