<svg xmlns="http://www.w3.org/2000/svg" viewBox="0 0 48 48" width="48" height="48">
  <!-- Armored gauntlet - left -->
  <path
    d="M6 6 L18 6 L18 18 L20 22 L20 28 L18 30 L18 36 L14 40 L10 40 L6 36 L4 30 L4 22 L6 18 Z"
    fill="#c8b89a" fill-opacity="0.15"
    stroke="#c8b89a" stroke-width="2"
    stroke-linejoin="round"
    stroke-linecap="round"
  />
  <!-- Left gauntlet finger plates -->
  <path d="M8 36 L8 42" fill="none" stroke="#c8b89a" stroke-width="1.5" stroke-linecap="round" opacity="0.6" />
  <path d="M12 36 L12 44" fill="none" stroke="#c8b89a" stroke-width="1.5" stroke-linecap="round" opacity="0.6" />
  <path d="M16 36 L16 42" fill="none" stroke="#c8b89a" stroke-width="1.5" stroke-linecap="round" opacity="0.6" />
  <!-- Left wrist guard -->
  <path d="M5 14 L19 14" fill="none" stroke="#c8b89a" stroke-width="1.5" stroke-linecap="round" opacity="0.5" />
  <!-- Armored gauntlet - right -->
  <path
    d="M30 6 L42 6 L44 18 L44 22 L44 30 L42 36 L38 40 L34 40 L30 36 L28 30 L28 22 L30 18 Z"
    fill="#c8b89a" fill-opacity="0.15"
    stroke="#c8b89a" stroke-width="2"
    stroke-linejoin="round"
    stroke-linecap="round"
  />
  <!-- Right gauntlet finger plates -->
  <path d="M32 36 L32 42" fill="none" stroke="#c8b89a" stroke-width="1.5" stroke-linecap="round" opacity="0.6" />
  <path d="M36 36 L36 44" fill="none" stroke="#c8b89a" stroke-width="1.5" stroke-linecap="round" opacity="0.6" />
  <path d="M40 36 L40 42" fill="none" stroke="#c8b89a" stroke-width="1.5" stroke-linecap="round" opacity="0.6" />
  <!-- Right wrist guard -->
  <path d="M29 14 L43 14" fill="none" stroke="#c8b89a" stroke-width="1.5" stroke-linecap="round" opacity="0.5" />
</svg>
